<svg xmlns="http://www.w3.org/2000/svg" width="512" height="512" viewBox="0 0 512 512">
  <defs>
    <linearGradient id="bg" x1="0" y1="0" x2="1" y2="1">
      <stop offset="0" stop-color="#4361ee"/>
      <stop offset="1" stop-color="#3a0ca3"/>
    </linearGradient>
  </defs>
  <rect width="512" height="512" rx="96" fill="url(#bg)"/>
  <path d="M256 120c-34 0-62 28-62 62v16c0 7-4 13-9 17l-30 18c-6 3-9 9-9 16v26c0 12 8 20 20 20h180c12 0 20-8 20-20v-26c0-7-3-13-9-16l-30-18c-5-4-9-10-9-17v-16c0-34-28-62-62-62Z" fill="#ffd700"/>
  <path d="M168 312h176l-28 108c-4 15-17 28-34 28H230c-17 0-30-13-34-28l-28-108Z" fill="#ffffff" fill-opacity="0.9"/>
  <circle cx="256" cy="232" r="28" fill="#0f0f23" fill-opacity="0.35"/>
</svg>
