<svg xmlns="http://www.w3.org/2000/svg" width="192" height="192" viewBox="0 0 192 192">
  <defs>
    <linearGradient id="bg" x1="0" y1="0" x2="1" y2="1">
      <stop offset="0" stop-color="#4361ee"/>
      <stop offset="1" stop-color="#3a0ca3"/>
    </linearGradient>
  </defs>
  <rect width="192" height="192" rx="36" fill="url(#bg)"/>
  <path d="M96 44c-12 0-22 10-22 22v6c0 2-1 4-3 5l-10 6c-2 1-3 3-3 5v10c0 3 2 6 6 6h64c4 0 6-3 6-6V88c0-2-1-4-3-5l-10-6c-2-1-3-3-3-5v-6c0-12-10-22-22-22Z" fill="#ffd700"/>
  <path d="M64 110h64l-10 34c-1 4-5 8-10 8H84c-5 0-9-4-10-8l-10-34Z" fill="#ffffff" fill-opacity="0.9"/>
  <circle cx="96" cy="86" r="10" fill="#0f0f23" fill-opacity="0.35"/>
</svg>
